:version 1.10
:name ASF
:units
  mass 1
  length 1
  angle deg
:documentation
  ASF file generated by Kaydara
:root
  axis xyz
  order  tx ty tz rx ry rz
  position 0 0 0
  orientation 0 0 0
:bonedata
  begin
    id 1
    name RightUpLegDummy
    direction -0.718183 -0.695806 0.00816078
    length 4.904
    axis 0 0 0 xyz
  end
  begin
    id 2
    name RightUpLeg
    direction -0.0736652 -0.994202 0.0783343
    length 17.4976
    axis -2.72909 -3.00389 -4.00133 xyz
    dof rx ry rz
  end
  begin
    id 3
    name RightLeg
    direction -0.0389037 -0.994596 -0.0962598
    length 16.5821
    axis 3.95836 -18.5909 -4.46993 xyz
    dof rx ry rz
  end
  begin
    id 4
    name RightFoot
    direction -0.311643 -0.412678 0.855906
    length 3.77069
    axis -1.99483 -18.8351 -3.27644 xyz
    dof rx ry rz
  end
  begin
    id 5
    name RightToes
    direction -0.317852 0.0389852 0.947339
    length 3.85082
    axis -2.00228 -18.1713 -3.25211 xyz
    dof rx ry rz
  end
  begin
    id 6
    name SpineDummy
    direction 8.3039e-015 1 4.44677e-016
    length 4.6813
    axis 0 0 0 xyz
  end
  begin
    id 7
    name Spine
    direction -0.000262373 0.999988 0.00493267
    length 10.1015
    axis -0.00246081 0.00062579 0.0150362 xyz
    dof rx ry rz
  end
  begin
    id 8
    name Spine1
    direction 0 0 0
    length 0
    axis -0.00349562 0.000650293 0.0196666 xyz
    dof rx ry rz
  end
  begin
    id 9
    name HEadDummy
    direction -0.000343232 0.999999 0.00123745
    length 3.43865
    axis -0.00349562 0.000650293 0.0196666 xyz
  end
  begin
    id 10
    name HEad
    direction -0.0461221 0.980933 0.188796
    length 5.12695
    axis -0.00351404 -7.04812 0.0199272 xyz
    dof rx ry rz
  end
  begin
    id 11
    name LeftShoulder1Dummy
    direction 0.998904 -0.0399089 -0.0244534
    length 3.5433
    axis -0.00349562 0.000650293 0.0196666 xyz
  end
  begin
    id 12
    name LeftShoulder1
    direction 0.99951 1.64443e-005 0.0312999
    length 4.05031
    axis -0.00349562 0.000650293 0.0196666 xyz
    dof rx ry rz
  end
  begin
    id 13
    name LeftArm
    direction 0.984791 0.0515299 0.165927
    length 12.9126
    axis -64.823 -10.7743 5.20463 xyz
    dof rx ry rz
  end
  begin
    id 14
    name LeftForeArm
    direction 0.984968 0.0534808 0.16425
    length 10.8596
    axis -30.0462 -7.70601 1.87451 xyz
    dof rx ry rz
  end
  begin
    id 15
    name LeftHand
    direction 0.975871 0.0289682 0.216418
    length 6.62295
    axis -20.1348 -6.98077 1.86072 xyz
    dof rx ry rz
  end
  begin
    id 16
    name RightShoulderDummy
    direction -0.998877 -0.0405946 -0.0244307
    length 3.5433
    axis -0.00349562 0.000650293 0.0196666 xyz
  end
  begin
    id 17
    name RightShoulder
    direction -0.998933 -0.0249743 -0.0388558
    length 4.05031
    axis -0.0205316 -4.02113 1.41395 xyz
    dof rx ry rz
  end
  begin
    id 18
    name RightArm
    direction -0.997559 0.068664 0.0127103
    length 12.9638
    axis -67.3882 1.84188 -6.15987 xyz
    dof rx ry rz
  end
  begin
    id 19
    name RightForeArm
    direction -0.991508 0.0912848 0.0926241
    length 10.8312
    axis -22.1975 3.41087 -4.28711 xyz
    dof rx ry rz
  end
  begin
    id 20
    name RightHand
    direction -0.989262 0.0600788 0.133232
    length 6.57864
    axis -12.2911 2.17515 -4.39675 xyz
    dof rx ry rz
  end
  begin
    id 21
    name LeftUpLegDummy
    direction 0.718183 -0.695806 0.00816078
    length 4.904
    axis 0 0 0 xyz
  end
  begin
    id 22
    name LeftUpLeg
    direction 0.0831398 -0.99469 0.0606531
    length 17.4976
    axis -1.71016 2.29552 4.63832 xyz
    dof rx ry rz
  end
  begin
    id 23
    name LeftLeg
    direction 0.0498442 -0.991778 -0.117862
    length 16.5821
    axis 5.13757 15.5727 5.13348 xyz
    dof rx ry rz
  end
  begin
    id 24
    name LeftFoot
    direction 0.269026 -0.433896 0.85986
    length 3.77069
    axis -0.576502 15.6961 4.10267 xyz
    dof rx ry rz
  end
  begin
    id 25
    name LeftToes
    direction 0.277311 0.0251143 0.960452
    length 3.85048
    axis -0.576502 15.6961 4.10267 xyz
    dof rx ry rz
  end
:hierarchy
  begin
    root RightUpLegDummy SpineDummy LeftUpLegDummy
    RightUpLegDummy RightUpLeg
    RightUpLeg RightLeg
    RightLeg RightFoot
    RightFoot RightToes
    SpineDummy Spine
    Spine Spine1
    Spine1 HEadDummy LeftShoulder1Dummy RightShoulderDummy
    HEadDummy HEad
    LeftShoulder1Dummy LeftShoulder1
    LeftShoulder1 LeftArm
    LeftArm LeftForeArm
    LeftForeArm LeftHand
    RightShoulderDummy RightShoulder
    RightShoulder RightArm
    RightArm RightForeArm
    RightForeArm RightHand
    LeftUpLegDummy LeftUpLeg
    LeftUpLeg LeftLeg
    LeftLeg LeftFoot
    LeftFoot LeftToes
  end

:SAMPLES-PER-SECOND 30
:FULLY-SPECIFIED
:DEGREES
92
root  9.22704 19.0018 -79.3395 57.7989 -24.911 -36.4447
RightUpLeg  -103.746 15.7744 39.7677
RightLeg  112.734 20.4362 -10.2163
RightFoot  -35.1878 0.338461 1.12648
RightToes  5.82077e-011 -3.18055e-015 -2.98177e-016
Spine  45.0956 7.40506 11.974
Spine1  -8.43757 12.5585 -13.3184
HEad  -29.7369 8.40837 -6.54074
LeftShoulder1  -3.88251e-019 9.70628e-020 -3.87848e-018
LeftArm  -5.89085 -31.4966 -52.2662
LeftForeArm  -2.20418 -8.54483 -2.02251
LeftHand  -7.48676 -8.58116 58.7253
RightShoulder  1.73964 8.79397 5.08174
RightArm  9.01227 33.2394 68.4715
RightForeArm  32.4717 10.5388 -9.09257
RightHand  -3.92226 10.2588 -28.4448
LeftUpLeg  -73.3963 28.2535 -4.12068
LeftLeg  130.203 -25.9397 13.8999
LeftFoot  -53.3008 -11.4635 -30.2712
LeftToes  1.39127e-010 -3.60802e-011 -7.31315e-011
93
root  9.46029 18.8292 -78.4103 60.2575 -26.1081 -36.2619
RightUpLeg  -105.904 15.2407 37.0395
RightLeg  114.653 19.9994 -8.67042
RightFoot  -35.335 0.594925 2.42827
RightToes  5.82077e-011 -3.18055e-015 -2.98177e-016
Spine  42.9997 8.50942 13.6095
Spine1  -6.38004 14.5242 -15.9111
HEad  -28.2269 5.40669 -6.75637
LeftShoulder1  -3.88251e-019 9.70628e-020 -3.87848e-018
LeftArm  -3.45798 -32.6528 -57.8082
LeftForeArm  -2.18374 -8.7888 -2.92636
LeftHand  -7.60392 -8.65296 59.1951
RightShoulder  1.90934 8.7601 6.21336
RightArm  8.31737 33.5326 65.1135
RightForeArm  29.1311 9.70348 -8.3003
RightHand  -4.13315 9.70762 -30.9324
LeftUpLeg  -74.2317 27.0489 -8.19819
LeftLeg  129.435 -26.4813 14.7805
LeftFoot  -51.1899 -10.8394 -30.3209
LeftToes  1.39127e-010 -3.60802e-011 -7.31315e-011
94
root  9.68318 18.7627 -77.571 62.0487 -26.7067 -36.7267
RightUpLeg  -107.023 14.407 34.8779
RightLeg  116.321 19.0385 -6.41646
RightFoot  -35.0609 0.917256 4.13943
RightToes  5.82077e-011 -3.18055e-015 -2.98177e-016
Spine  41.7852 9.74415 14.2417
Spine1  -5.39814 15.9706 -16.0659
HEad  -27.3958 3.47267 -7.30149
LeftShoulder1  -3.88251e-019 9.70628e-020 -3.87848e-018
LeftArm  -2.50645 -32.0444 -62.8585
LeftForeArm  -0.84803 -7.68902 -2.57191
LeftHand  -8.4006 -9.28201 61.8923
RightShoulder  2.10776 9.0059 7.22115
RightArm  7.65874 33.2439 64.1407
RightForeArm  27.691 6.8224 -7.27864
RightHand  -4.532 8.59038 -36.1995
LeftUpLeg  -73.3422 26.5982 -9.1342
LeftLeg  129.762 -24.5374 12.6521
LeftFoot  -50.1876 -9.97903 -28.7658
LeftToes  1.39127e-010 -3.60802e-011 -7.31315e-011
95
root  9.90259 18.814 -76.8108 63.3476 -26.9303 -38.0636
RightUpLeg  -106.858 13.5817 33.4472
RightLeg  117.442 17.8301 -4.03068
RightFoot  -34.0756 1.1297 5.50676
RightToes  5.82077e-011 -3.18055e-015 -2.98177e-016
Spine  41.312 10.7353 14.3962
Spine1  -4.73708 17.0332 -15.2464
HEad  -27.5683 2.35132 -8.04819
LeftShoulder1  -3.88251e-019 9.70628e-020 -3.87848e-018
LeftArm  -2.77315 -30.941 -65.0763
LeftForeArm  -0.0295368 -7.53464 -2.64544
LeftHand  -9.34649 -9.97996 64.9655
RightShoulder  2.26409 9.23605 7.95178
RightArm  6.91338 32.4751 64.1203
RightForeArm  27.6937 4.1637 -6.71857
RightHand  -5.30193 7.9683 -43.5813
LeftUpLeg  -71.629 27.3124 -8.26255
LeftLeg  130.151 -21.8325 9.68686
LeftFoot  -49.4816 -9.0665 -26.7116
LeftToes  1.39127e-010 -3.60802e-011 -7.31315e-011
96
root  10.1217 19.0028 -76.1024 64.3305 -26.5218 -39.3325
RightUpLeg  -106.063 12.2344 32.3435
RightLeg  118.025 16.1201 -0.916355
RightFoot  -32.8968 1.21499 6.35927
RightToes  5.82077e-011 -3.18055e-015 -2.98177e-016
Spine  41.3381 10.951 15.269
Spine1  -3.81948 17.6665 -15.1698
HEad  -28.4305 1.60953 -8.3611
LeftShoulder1  -3.88251e-019 9.70628e-020 -3.87848e-018
LeftArm  -2.79476 -30.611 -65.2311
LeftForeArm  -0.50578 -8.49073 -3.68937
LeftHand  -9.62938 -10.1222 66.015
RightShoulder  2.376 9.40076 8.46162
RightArm  6.52415 31.9554 63.1677
RightForeArm  27.6073 3.34471 -6.36882
RightHand  -6.2326 8.23989 -49.5241
LeftUpLeg  -71.0007 27.9375 -7.7823
LeftLeg  129.172 -20.9981 9.0915
LeftFoot  -47.7657 -8.30391 -25.7714
LeftToes  1.39127e-010 -3.60802e-011 -7.31315e-011
97
root  10.3811 19.3277 -75.4442 64.2003 -24.8991 -40.0937
RightUpLeg  -104.235 9.63026 31.6631
RightLeg  118.156 13.4872 3.88521
RightFoot  -32.4027 1.416 7.71728
RightToes  5.82077e-011 -3.18055e-015 -2.98177e-016
Spine  42.7841 10.114 17.5887
Spine1  -3.32671 17.8459 -15.6961
HEad  -29.3229 0.949673 -8.35986
LeftShoulder1  -3.88251e-019 9.70628e-020 -3.87848e-018
LeftArm  -2.56246 -30.4548 -65.9212
LeftForeArm  -1.0292 -9.21193 -4.26921
LeftHand  -9.61431 -9.89752 66.7154
RightShoulder  2.53144 9.60148 9.18533
RightArm  6.66791 32.0082 61.3957
RightForeArm  27.2271 3.57317 -5.83402
RightHand  -7.00531 8.87398 -52.7251
LeftUpLeg  -70.6154 27.6839 -7.13677
LeftLeg  126.691 -22.1344 11.1809
LeftFoot  -45.5426 -7.79572 -25.9337
LeftToes  1.39127e-010 -3.60802e-011 -7.31315e-011
98
root  10.6526 19.708 -74.8548 62.2781 -22.6368 -41.3115
RightUpLeg  -100.119 6.71484 31.5853
RightLeg  117.768 11.0202 8.58357
RightFoot  -32.3025 1.73925 9.68561
RightToes  5.82077e-011 -3.18055e-015 -2.98177e-016
Spine  46.1276 8.67308 20.5963
Spine1  -3.51626 18.2234 -15.9126
HEad  -29.8022 0.120084 -8.59361
LeftShoulder1  -3.88251e-019 9.70628e-020 -3.87848e-018
LeftArm  -2.78566 -29.7087 -67.8342
LeftForeArm  -0.483605 -9.077 -3.8107
LeftHand  -9.98729 -9.92988 68.6162
RightShoulder  2.79015 9.83183 10.4791
RightArm  6.81949 32.2783 60.0271
RightForeArm  27.489 3.42407 -5.39759
RightHand  -7.5023 9.24257 -54.7097
LeftUpLeg  -67.3827 27.7562 -4.19624
LeftLeg  123.868 -22.9278 13.2302
LeftFoot  -44.5681 -7.54777 -25.9216
LeftToes  1.39127e-010 -3.60802e-011 -7.31315e-011
99
root  10.836 19.9943 -74.3322 59.3099 -20.4749 -42.4388
RightUpLeg  -94.9042 4.42842 31.3759
RightLeg  117.634 10.6211 9.42107
RightFoot  -31.391 1.7715 10.3822
RightToes  5.82077e-011 -3.18055e-015 -2.98177e-016
Spine  49.6359 6.89325 23.1431
Spine1  -3.57784 18.7211 -15.7784
HEad  -29.9637 -0.885533 -8.92438
LeftShoulder1  -3.88251e-019 9.70628e-020 -3.87848e-018
LeftArm  -3.2551 -29.0058 -69.3832
LeftForeArm  0.55195 -8.64302 -3.55266
LeftHand  -10.5871 -10.3161 70.3948
RightShoulder  3.05913 9.99855 11.8782
RightArm  6.52113 32.2329 59.4946
RightForeArm  28.4874 2.64496 -5.37244
RightHand  -7.96751 9.3432 -57.2368
LeftUpLeg  -61.9254 27.7884 0.217298
LeftLeg  121.851 -22.5411 13.609
LeftFoot  -44.9206 -7.41896 -25.1963
LeftToes  1.39127e-010 -3.60802e-011 -7.31315e-011
100
root  10.8499 20.1193 -73.874 56.4542 -18.6174 -42.0162
RightUpLeg  -90.4962 2.7884 29.9142
RightLeg  119.157 12.2614 5.9234
RightFoot  -29.1815 1.29935 8.5189
RightToes  5.82077e-011 -3.18055e-015 -2.98177e-016
Spine  51.7529 5.08679 24.6254
Spine1  -3.1692 18.7268 -15.477
HEad  -30.1771 -1.88566 -8.80904
LeftShoulder1  -3.88251e-019 9.70628e-020 -3.87848e-018
LeftArm  -3.18209 -28.9436 -70.0869
LeftForeArm  1.10814 -8.31857 -4.10189
LeftHand  -10.9424 -10.6171 71.1266
RightShoulder  3.19683 10.1002 12.5601
RightArm  5.84801 31.6822 59.0481
RightForeArm  28.9971 1.73447 -5.4595
RightHand  -8.70362 9.55236 -60.8875
LeftUpLeg  -57.2947 26.5767 3.45422
LeftLeg  120.692 -21.8757 13.2128
LeftFoot  -45.3176 -7.1909 -24.1172
LeftToes  1.39127e-010 -3.60802e-011 -7.31315e-011
101
root  10.7006 20.1516 -73.4776 53.7661 -16.9079 -40.5017
RightUpLeg  -85.9865 1.88221 27.1343
RightLeg  122.807 13.9118 2.46824
RightFoot  -26.7913 0.755677 5.6176
RightToes  5.82077e-011 -3.18055e-015 -2.98177e-016
Spine  52.9809 3.63786 25.3477
Spine1  -2.5511 18.5205 -14.8409
HEad  -30.6137 -2.81841 -8.28282
LeftShoulder1  -3.88251e-019 9.70628e-020 -3.87848e-018
LeftArm  -2.81628 -28.8912 -71.1674
LeftForeArm  1.57718 -8.13477 -4.51321
LeftHand  -11.0737 -10.5939 71.8575
RightShoulder  3.22713 10.1798 12.6338
RightArm  5.16382 30.8028 57.9919
RightForeArm  28.0721 1.08285 -5.23932
RightHand  -9.68754 9.87094 -65.3116
LeftUpLeg  -53.6892 24.7223 5.54918
LeftLeg  119.969 -21.3995 12.8438
LeftFoot  -45.499 -6.96397 -23.2284
LeftToes  1.39127e-010 -3.60802e-011 -7.31315e-011
102
root  10.4629 20.2022 -73.1281 50.3435 -14.9595 -38.4745
RightUpLeg  -79.414 1.24976 23.7659
RightLeg  127.284 13.5878 2.42613
RightFoot  -26.062 0.477517 3.51194
RightToes  5.82077e-011 -3.18055e-015 -2.98177e-016
Spine  54.4734 2.10661 25.8175
Spine1  -2.01843 18.1333 -13.7213
HEad  -31.0663 -3.61769 -7.819
LeftShoulder1  -3.88251e-019 9.70628e-020 -3.87848e-018
LeftArm  -2.89918 -28.1715 -72.8552
LeftForeArm  2.75751 -8.09691 -4.23344
LeftHand  -11.2208 -10.4683 73.0262
RightShoulder  3.2933 10.1871 13.0115
RightArm  4.68084 29.7667 56.6094
RightForeArm  26.3755 1.03579 -4.88513
RightHand  -10.5787 10.0453 -69.4059
LeftUpLeg  -49.5191 22.3628 7.80361
LeftLeg  119.21 -20.7846 12.2557
LeftFoot  -45.9863 -6.89143 -22.6331
LeftToes  1.39127e-010 -3.60802e-011 -7.31315e-011
103
root  10.2024 20.2185 -72.8124 47.155 -12.0296 -34.5868
RightUpLeg  -73.0391 -0.573751 20.5515
RightLeg  130.127 11.546 4.58381
RightFoot  -27.1884 0.368138 2.26418
RightToes  5.82077e-011 -3.18055e-015 -2.98177e-016
Spine  54.7464 -0.182826 26.3198
Spine1  -1.61251 16.3696 -12.3499
HEad  -31.2239 -4.01919 -7.52449
LeftShoulder1  -3.88251e-019 9.70628e-020 -3.87848e-018
LeftArm  -3.35393 -27.2608 -73.8685
LeftForeArm  4.32356 -8.10937 -4.05625
LeftHand  -11.3811 -10.489 73.7372
RightShoulder  3.43936 10.0384 14.0672
RightArm  4.52803 28.6914 55.6532
RightForeArm  25.253 1.72922 -4.67905
RightHand  -11.0983 10.0836 -71.8751
LeftUpLeg  -47.024 17.8823 8.57515
LeftLeg  118.313 -20.1725 11.6835
LeftFoot  -46.6187 -6.89039 -22.1841
LeftToes  1.39127e-010 -3.60802e-011 -7.31315e-011
104
root  9.85726 20.1492 -72.525 46.2843 -9.54412 -29.9737
RightUpLeg  -70.1006 -2.2359 18.5921
RightLeg  129.836 10.3266 6.06169
RightFoot  -27.8457 0.413487 2.5127
RightToes  5.82077e-011 -3.18055e-015 -2.98177e-016
Spine  52.9287 -1.47224 25.8006
Spine1  -1.45665 13.9814 -10.73
HEad  -31.0214 -3.89131 -7.20112
LeftShoulder1  -3.88251e-019 9.70628e-020 -3.87848e-018
LeftArm  -3.66304 -26.6157 -73.8175
LeftForeArm  5.47417 -7.90825 -4.42044
LeftHand  -11.483 -10.6022 73.8264
RightShoulder  3.5797 9.81154 15.2123
RightArm  4.73126 27.6137 55.3053
RightForeArm  25.1379 2.68636 -4.4718
RightHand  -11.3809 10.2186 -72.7768
LeftUpLeg  -47.2626 13.4479 7.40996
LeftLeg  117.585 -19.5705 11.0102
LeftFoot  -47.1308 -6.84871 -21.7022
LeftToes  1.39127e-010 -3.60802e-011 -7.31315e-011
105
root  9.45569 20.088 -72.2531 46.5198 -7.84107 -26.148
RightUpLeg  -69.0106 -3.29515 18.3698
RightLeg  127.293 10.8935 5.93756
RightFoot  -27.8288 0.697615 4.72182
RightToes  5.82077e-011 -3.18055e-015 -2.98177e-016
Spine  50.7342 -1.75474 24.6984
Spine1  -1.34431 11.9607 -8.6752
HEad  -30.7884 -3.44462 -6.81104
LeftShoulder1  -3.88251e-019 9.70628e-020 -3.87848e-018
LeftArm  -3.76195 -26.1452 -73.3598
LeftForeArm  6.00335 -7.5361 -4.92665
LeftHand  -11.5812 -10.6609 74.0895
RightShoulder  3.63196 9.66599 15.7352
RightArm  4.93916 26.5509 55.3562
RightForeArm  25.3159 3.24048 -4.23112
RightHand  -11.6952 10.4405 -73.5044
LeftUpLeg  -48.0864 10.1811 6.36574
LeftLeg  116.951 -18.9991 10.3044
LeftFoot  -47.2289 -6.75094 -21.3286
LeftToes  1.39127e-010 -3.60802e-011 -7.31315e-011
106
root  9.05678 20.097 -71.9828 45.753 -6.12041 -23.163
RightUpLeg  -66.0939 -4.43386 18.8756
RightLeg  124.42 12.2161 4.75523
RightFoot  -29.7082 1.2466 7.85518
RightToes  5.82077e-011 -3.18055e-015 -2.98177e-016
Spine  49.4634 -2.29425 23.975
Spine1  -0.764163 10.2581 -6.32621
HEad  -30.7974 -2.99972 -6.49786
LeftShoulder1  -3.88251e-019 9.70628e-020 -3.87848e-018
LeftArm  -3.89412 -25.683 -72.8883
LeftForeArm  6.33667 -7.30841 -5.26689
LeftHand  -11.7347 -10.6919 74.7108
RightShoulder  3.62482 9.62833 15.749
RightArm  4.8509 25.546 55.6227
RightForeArm  25.1254 3.45779 -4.19835
RightHand  -12.014 10.5069 -74.7696
LeftUpLeg  -47.5032 7.30865 6.43718
LeftLeg  116.241 -18.4789 9.67051
LeftFoot  -47.0991 -6.71577 -21.3031
LeftToes  1.39127e-010 -3.60802e-011 -7.31315e-011
